<mxfile host="Electron" agent="Mozilla/5.0 (Windows NT 10.0; Win64; x64) AppleWebKit/537.36 (KHTML, like Gecko) draw.io/26.2.2 Chrome/134.0.6998.178 Electron/35.1.2 Safari/537.36" version="26.2.2">
  <diagram name="Σελίδα-1" id="8BYGorF-1CgQnMmw-XZW">
    <mxGraphModel dx="1444" dy="1060" grid="0" gridSize="10" guides="1" tooltips="1" connect="1" arrows="1" fold="1" page="0" pageScale="1" pageWidth="827" pageHeight="1169" math="0" shadow="0">
      <root>
        <mxCell id="0" />
        <mxCell id="1" parent="0" />
        <mxCell id="nUsiypDdLE6ypsbWPNVa-3" style="edgeStyle=none;rounded=0;orthogonalLoop=1;jettySize=auto;html=1;exitX=0.5;exitY=0.5;exitDx=0;exitDy=0;exitPerimeter=0;" parent="1" source="dpwUTuutwJOYTm1G-602-5" target="nUsiypDdLE6ypsbWPNVa-1" edge="1">
          <mxGeometry relative="1" as="geometry" />
        </mxCell>
        <mxCell id="nUsiypDdLE6ypsbWPNVa-4" value="Βλέπει" style="edgeLabel;html=1;align=center;verticalAlign=middle;resizable=0;points=[];" parent="nUsiypDdLE6ypsbWPNVa-3" vertex="1" connectable="0">
          <mxGeometry x="-0.0116" relative="1" as="geometry">
            <mxPoint as="offset" />
          </mxGeometry>
        </mxCell>
        <mxCell id="nUsiypDdLE6ypsbWPNVa-6" style="edgeStyle=none;rounded=0;orthogonalLoop=1;jettySize=auto;html=1;exitX=0.5;exitY=0.5;exitDx=0;exitDy=0;exitPerimeter=0;" parent="1" source="dpwUTuutwJOYTm1G-602-5" target="nUsiypDdLE6ypsbWPNVa-5" edge="1">
          <mxGeometry relative="1" as="geometry" />
        </mxCell>
        <mxCell id="nUsiypDdLE6ypsbWPNVa-7" value="Επιλέγει" style="edgeLabel;html=1;align=center;verticalAlign=middle;resizable=0;points=[];" parent="nUsiypDdLE6ypsbWPNVa-6" vertex="1" connectable="0">
          <mxGeometry x="-0.0986" relative="1" as="geometry">
            <mxPoint as="offset" />
          </mxGeometry>
        </mxCell>
        <mxCell id="nUsiypDdLE6ypsbWPNVa-13" style="edgeStyle=none;rounded=0;orthogonalLoop=1;jettySize=auto;html=1;exitX=0.5;exitY=0.5;exitDx=0;exitDy=0;exitPerimeter=0;" parent="1" source="dpwUTuutwJOYTm1G-602-5" target="nUsiypDdLE6ypsbWPNVa-11" edge="1">
          <mxGeometry relative="1" as="geometry" />
        </mxCell>
        <mxCell id="nUsiypDdLE6ypsbWPNVa-14" value="Προσθέτει Νέα Στοιχεία" style="edgeLabel;html=1;align=center;verticalAlign=middle;resizable=0;points=[];" parent="nUsiypDdLE6ypsbWPNVa-13" vertex="1" connectable="0">
          <mxGeometry x="0.1194" relative="1" as="geometry">
            <mxPoint as="offset" />
          </mxGeometry>
        </mxCell>
        <mxCell id="zBdxMDdA5Jc1Q53KBNL7-8" style="edgeStyle=none;rounded=0;orthogonalLoop=1;jettySize=auto;html=1;exitX=0.5;exitY=0.5;exitDx=0;exitDy=0;exitPerimeter=0;" edge="1" parent="1" source="dpwUTuutwJOYTm1G-602-5" target="zBdxMDdA5Jc1Q53KBNL7-5">
          <mxGeometry relative="1" as="geometry" />
        </mxCell>
        <mxCell id="zBdxMDdA5Jc1Q53KBNL7-9" value="Επιλέγει&amp;nbsp;" style="edgeLabel;html=1;align=center;verticalAlign=middle;resizable=0;points=[];" vertex="1" connectable="0" parent="zBdxMDdA5Jc1Q53KBNL7-8">
          <mxGeometry x="0.3069" relative="1" as="geometry">
            <mxPoint as="offset" />
          </mxGeometry>
        </mxCell>
        <mxCell id="zBdxMDdA5Jc1Q53KBNL7-39" style="edgeStyle=none;rounded=0;orthogonalLoop=1;jettySize=auto;html=1;exitX=0.5;exitY=0.5;exitDx=0;exitDy=0;exitPerimeter=0;" edge="1" parent="1" source="dpwUTuutwJOYTm1G-602-5" target="zBdxMDdA5Jc1Q53KBNL7-15">
          <mxGeometry relative="1" as="geometry" />
        </mxCell>
        <mxCell id="zBdxMDdA5Jc1Q53KBNL7-40" value="Βλέπει" style="edgeLabel;html=1;align=center;verticalAlign=middle;resizable=0;points=[];" vertex="1" connectable="0" parent="zBdxMDdA5Jc1Q53KBNL7-39">
          <mxGeometry x="0.2183" y="2" relative="1" as="geometry">
            <mxPoint as="offset" />
          </mxGeometry>
        </mxCell>
        <mxCell id="zBdxMDdA5Jc1Q53KBNL7-41" style="edgeStyle=none;rounded=0;orthogonalLoop=1;jettySize=auto;html=1;exitX=0.5;exitY=0.5;exitDx=0;exitDy=0;exitPerimeter=0;" edge="1" parent="1" source="dpwUTuutwJOYTm1G-602-5" target="zBdxMDdA5Jc1Q53KBNL7-23">
          <mxGeometry relative="1" as="geometry">
            <Array as="points">
              <mxPoint x="-331" y="510" />
            </Array>
          </mxGeometry>
        </mxCell>
        <mxCell id="zBdxMDdA5Jc1Q53KBNL7-42" value="Αλλάζει Την Αγγελία" style="edgeLabel;html=1;align=center;verticalAlign=middle;resizable=0;points=[];" vertex="1" connectable="0" parent="zBdxMDdA5Jc1Q53KBNL7-41">
          <mxGeometry x="0.3959" y="-1" relative="1" as="geometry">
            <mxPoint as="offset" />
          </mxGeometry>
        </mxCell>
        <mxCell id="dpwUTuutwJOYTm1G-602-5" value="User" style="shape=umlActor;verticalLabelPosition=bottom;verticalAlign=top;html=1;outlineConnect=0;" parent="1" vertex="1">
          <mxGeometry x="-371" y="-129" width="30" height="60" as="geometry" />
        </mxCell>
        <mxCell id="nUsiypDdLE6ypsbWPNVa-10" style="edgeStyle=none;rounded=0;orthogonalLoop=1;jettySize=auto;html=1;exitX=0.5;exitY=1;exitDx=0;exitDy=0;" parent="1" source="dpwUTuutwJOYTm1G-602-13" target="nUsiypDdLE6ypsbWPNVa-8" edge="1">
          <mxGeometry relative="1" as="geometry" />
        </mxCell>
        <mxCell id="dpwUTuutwJOYTm1G-602-13" value="DataBase" style="ellipse;shape=umlEntity;whiteSpace=wrap;html=1;" parent="1" vertex="1">
          <mxGeometry x="1" y="-243" width="80" height="80" as="geometry" />
        </mxCell>
        <mxCell id="fuIP2sSBbOLj8hBxwQu8-3" value="" style="edgeStyle=none;rounded=0;orthogonalLoop=1;jettySize=auto;html=1;" parent="1" source="nUsiypDdLE6ypsbWPNVa-1" target="fuIP2sSBbOLj8hBxwQu8-1" edge="1">
          <mxGeometry relative="1" as="geometry" />
        </mxCell>
        <mxCell id="nUsiypDdLE6ypsbWPNVa-1" value="Menu Bar" style="shape=umlBoundary;whiteSpace=wrap;html=1;" parent="1" vertex="1">
          <mxGeometry x="-222" y="-243" width="100" height="80" as="geometry" />
        </mxCell>
        <mxCell id="nUsiypDdLE6ypsbWPNVa-9" value="" style="edgeStyle=none;rounded=0;orthogonalLoop=1;jettySize=auto;html=1;" parent="1" source="nUsiypDdLE6ypsbWPNVa-5" target="nUsiypDdLE6ypsbWPNVa-8" edge="1">
          <mxGeometry relative="1" as="geometry" />
        </mxCell>
        <mxCell id="nUsiypDdLE6ypsbWPNVa-5" value="Οθόνη&amp;nbsp;&lt;div&gt;Ρυθμίσεων&lt;/div&gt;" style="shape=umlBoundary;whiteSpace=wrap;html=1;" parent="1" vertex="1">
          <mxGeometry x="-222" y="-92" width="100" height="80" as="geometry" />
        </mxCell>
        <mxCell id="zBdxMDdA5Jc1Q53KBNL7-2" value="" style="edgeStyle=orthogonalEdgeStyle;rounded=0;orthogonalLoop=1;jettySize=auto;html=1;" edge="1" parent="1" source="nUsiypDdLE6ypsbWPNVa-8" target="zBdxMDdA5Jc1Q53KBNL7-1">
          <mxGeometry relative="1" as="geometry" />
        </mxCell>
        <mxCell id="nUsiypDdLE6ypsbWPNVa-8" value="φόρτωση&lt;div&gt;στοιχείων&lt;/div&gt;" style="ellipse;shape=umlControl;whiteSpace=wrap;html=1;" parent="1" vertex="1">
          <mxGeometry x="-57" y="-92" width="70" height="80" as="geometry" />
        </mxCell>
        <mxCell id="nUsiypDdLE6ypsbWPNVa-16" value="" style="edgeStyle=none;rounded=0;orthogonalLoop=1;jettySize=auto;html=1;" parent="1" source="nUsiypDdLE6ypsbWPNVa-20" target="nUsiypDdLE6ypsbWPNVa-15" edge="1">
          <mxGeometry relative="1" as="geometry">
            <mxPoint x="-60" y="140" as="sourcePoint" />
          </mxGeometry>
        </mxCell>
        <mxCell id="nUsiypDdLE6ypsbWPNVa-19" value="Σωστά" style="edgeLabel;html=1;align=center;verticalAlign=middle;resizable=0;points=[];" parent="nUsiypDdLE6ypsbWPNVa-16" vertex="1" connectable="0">
          <mxGeometry x="0.0263" y="1" relative="1" as="geometry">
            <mxPoint as="offset" />
          </mxGeometry>
        </mxCell>
        <mxCell id="nUsiypDdLE6ypsbWPNVa-11" value="Οθόνη&lt;div&gt;Τροποποίηση Προφίλ&lt;/div&gt;" style="shape=umlBoundary;whiteSpace=wrap;html=1;" parent="1" vertex="1">
          <mxGeometry x="-222" y="22" width="100" height="80" as="geometry" />
        </mxCell>
        <mxCell id="nUsiypDdLE6ypsbWPNVa-18" value="" style="edgeStyle=none;rounded=0;orthogonalLoop=1;jettySize=auto;html=1;" parent="1" source="nUsiypDdLE6ypsbWPNVa-15" target="dpwUTuutwJOYTm1G-602-13" edge="1">
          <mxGeometry relative="1" as="geometry" />
        </mxCell>
        <mxCell id="zBdxMDdA5Jc1Q53KBNL7-6" value="" style="edgeStyle=orthogonalEdgeStyle;rounded=0;orthogonalLoop=1;jettySize=auto;html=1;" edge="1" parent="1" source="zBdxMDdA5Jc1Q53KBNL7-1" target="zBdxMDdA5Jc1Q53KBNL7-5">
          <mxGeometry relative="1" as="geometry">
            <mxPoint x="139" y="126" as="sourcePoint" />
            <Array as="points">
              <mxPoint x="129" y="294" />
            </Array>
          </mxGeometry>
        </mxCell>
        <mxCell id="zBdxMDdA5Jc1Q53KBNL7-10" value="Επιλογή Τροποποίηση Αγελίας Σπιτιού" style="edgeLabel;html=1;align=center;verticalAlign=middle;resizable=0;points=[];" vertex="1" connectable="0" parent="zBdxMDdA5Jc1Q53KBNL7-6">
          <mxGeometry x="-0.3565" y="-2" relative="1" as="geometry">
            <mxPoint as="offset" />
          </mxGeometry>
        </mxCell>
        <mxCell id="nUsiypDdLE6ypsbWPNVa-15" value="&lt;div&gt;Αποθήκευση&lt;/div&gt;&lt;div&gt;στοιχείων&lt;/div&gt;" style="ellipse;shape=umlControl;whiteSpace=wrap;html=1;" parent="1" vertex="1">
          <mxGeometry x="327" y="19" width="70" height="80" as="geometry" />
        </mxCell>
        <mxCell id="nUsiypDdLE6ypsbWPNVa-21" value="" style="edgeStyle=none;rounded=0;orthogonalLoop=1;jettySize=auto;html=1;" parent="1" source="nUsiypDdLE6ypsbWPNVa-11" target="nUsiypDdLE6ypsbWPNVa-20" edge="1">
          <mxGeometry relative="1" as="geometry">
            <mxPoint x="38" y="3" as="targetPoint" />
          </mxGeometry>
        </mxCell>
        <mxCell id="nUsiypDdLE6ypsbWPNVa-23" value="" style="edgeStyle=none;rounded=0;orthogonalLoop=1;jettySize=auto;html=1;" parent="1" source="nUsiypDdLE6ypsbWPNVa-20" target="nUsiypDdLE6ypsbWPNVa-22" edge="1">
          <mxGeometry relative="1" as="geometry" />
        </mxCell>
        <mxCell id="nUsiypDdLE6ypsbWPNVa-24" value="Λάθος" style="edgeLabel;html=1;align=center;verticalAlign=middle;resizable=0;points=[];" parent="nUsiypDdLE6ypsbWPNVa-23" vertex="1" connectable="0">
          <mxGeometry x="-0.345" y="2" relative="1" as="geometry">
            <mxPoint as="offset" />
          </mxGeometry>
        </mxCell>
        <mxCell id="nUsiypDdLE6ypsbWPNVa-20" value="Έλεγχος Αλλαγών" style="ellipse;shape=umlControl;whiteSpace=wrap;html=1;" parent="1" vertex="1">
          <mxGeometry x="-47" y="19" width="70" height="80" as="geometry" />
        </mxCell>
        <mxCell id="nUsiypDdLE6ypsbWPNVa-25" value="" style="edgeStyle=none;rounded=0;orthogonalLoop=1;jettySize=auto;html=1;" parent="1" source="nUsiypDdLE6ypsbWPNVa-22" target="nUsiypDdLE6ypsbWPNVa-11" edge="1">
          <mxGeometry relative="1" as="geometry" />
        </mxCell>
        <mxCell id="nUsiypDdLE6ypsbWPNVa-22" value="Εμφάνιση&lt;div&gt;κανόνων&lt;/div&gt;" style="ellipse;shape=umlControl;whiteSpace=wrap;html=1;" parent="1" vertex="1">
          <mxGeometry x="-47" y="163" width="70" height="80" as="geometry" />
        </mxCell>
        <mxCell id="fuIP2sSBbOLj8hBxwQu8-4" value="" style="edgeStyle=none;rounded=0;orthogonalLoop=1;jettySize=auto;html=1;" parent="1" source="fuIP2sSBbOLj8hBxwQu8-1" target="nUsiypDdLE6ypsbWPNVa-5" edge="1">
          <mxGeometry relative="1" as="geometry" />
        </mxCell>
        <mxCell id="fuIP2sSBbOLj8hBxwQu8-1" value="Φόρτωση Οθόνης&lt;div&gt;Ρυθμίσεων&lt;/div&gt;" style="ellipse;shape=umlControl;whiteSpace=wrap;html=1;" parent="1" vertex="1">
          <mxGeometry x="-86" y="-243" width="70" height="80" as="geometry" />
        </mxCell>
        <mxCell id="zBdxMDdA5Jc1Q53KBNL7-1" value="Επεξεργασία&amp;nbsp;&lt;div&gt;Επιλογής&lt;/div&gt;" style="ellipse;shape=umlControl;whiteSpace=wrap;html=1;" vertex="1" parent="1">
          <mxGeometry x="85" y="-92" width="70" height="80" as="geometry" />
        </mxCell>
        <mxCell id="zBdxMDdA5Jc1Q53KBNL7-3" value="" style="endArrow=classic;html=1;rounded=0;" edge="1" parent="1" source="zBdxMDdA5Jc1Q53KBNL7-1" target="nUsiypDdLE6ypsbWPNVa-11">
          <mxGeometry width="50" height="50" relative="1" as="geometry">
            <mxPoint x="-135" y="73" as="sourcePoint" />
            <mxPoint x="-85" y="23" as="targetPoint" />
          </mxGeometry>
        </mxCell>
        <mxCell id="zBdxMDdA5Jc1Q53KBNL7-4" value="Επιλογή Τροποποίηση Προφίλ" style="edgeLabel;html=1;align=center;verticalAlign=middle;resizable=0;points=[];" vertex="1" connectable="0" parent="zBdxMDdA5Jc1Q53KBNL7-3">
          <mxGeometry x="0.1551" y="-1" relative="1" as="geometry">
            <mxPoint x="1" as="offset" />
          </mxGeometry>
        </mxCell>
        <mxCell id="zBdxMDdA5Jc1Q53KBNL7-12" value="" style="edgeStyle=none;rounded=0;orthogonalLoop=1;jettySize=auto;html=1;" edge="1" parent="1" source="zBdxMDdA5Jc1Q53KBNL7-5" target="zBdxMDdA5Jc1Q53KBNL7-24">
          <mxGeometry relative="1" as="geometry" />
        </mxCell>
        <mxCell id="zBdxMDdA5Jc1Q53KBNL7-5" value="Οθόνη&lt;div&gt;Menu Τροποποίηση&amp;nbsp;&lt;div&gt;Αγγελίας&lt;/div&gt;&lt;/div&gt;" style="shape=umlBoundary;whiteSpace=wrap;html=1;" vertex="1" parent="1">
          <mxGeometry x="-226" y="254" width="100" height="80" as="geometry" />
        </mxCell>
        <mxCell id="zBdxMDdA5Jc1Q53KBNL7-17" value="" style="edgeStyle=none;rounded=0;orthogonalLoop=1;jettySize=auto;html=1;" edge="1" parent="1" source="zBdxMDdA5Jc1Q53KBNL7-11" target="zBdxMDdA5Jc1Q53KBNL7-13">
          <mxGeometry relative="1" as="geometry" />
        </mxCell>
        <mxCell id="zBdxMDdA5Jc1Q53KBNL7-22" value="Διαγραφή Αγγελίας" style="edgeLabel;html=1;align=center;verticalAlign=middle;resizable=0;points=[];" vertex="1" connectable="0" parent="zBdxMDdA5Jc1Q53KBNL7-17">
          <mxGeometry x="-0.1283" relative="1" as="geometry">
            <mxPoint as="offset" />
          </mxGeometry>
        </mxCell>
        <mxCell id="zBdxMDdA5Jc1Q53KBNL7-27" value="" style="edgeStyle=none;rounded=0;orthogonalLoop=1;jettySize=auto;html=1;" edge="1" parent="1" source="zBdxMDdA5Jc1Q53KBNL7-11" target="zBdxMDdA5Jc1Q53KBNL7-23">
          <mxGeometry relative="1" as="geometry">
            <Array as="points">
              <mxPoint x="-1" y="508" />
            </Array>
          </mxGeometry>
        </mxCell>
        <mxCell id="zBdxMDdA5Jc1Q53KBNL7-28" value="Επεξεργασία Αγγελίας" style="edgeLabel;html=1;align=center;verticalAlign=middle;resizable=0;points=[];" vertex="1" connectable="0" parent="zBdxMDdA5Jc1Q53KBNL7-27">
          <mxGeometry x="-0.2305" relative="1" as="geometry">
            <mxPoint as="offset" />
          </mxGeometry>
        </mxCell>
        <mxCell id="zBdxMDdA5Jc1Q53KBNL7-11" value="Έλεγχος&amp;nbsp;&lt;div&gt;επιλογής&lt;/div&gt;" style="ellipse;shape=umlControl;whiteSpace=wrap;html=1;" vertex="1" parent="1">
          <mxGeometry x="65" y="311" width="70" height="80" as="geometry" />
        </mxCell>
        <mxCell id="zBdxMDdA5Jc1Q53KBNL7-18" value="" style="edgeStyle=none;rounded=0;orthogonalLoop=1;jettySize=auto;html=1;" edge="1" parent="1" source="zBdxMDdA5Jc1Q53KBNL7-13" target="zBdxMDdA5Jc1Q53KBNL7-15">
          <mxGeometry relative="1" as="geometry" />
        </mxCell>
        <mxCell id="zBdxMDdA5Jc1Q53KBNL7-13" value="Διαγραφεί&lt;div&gt;&lt;span style=&quot;font-size: 11px; text-wrap-mode: nowrap; background-color: rgb(255, 255, 255);&quot;&gt;Αγγελίας&lt;/span&gt;&lt;/div&gt;" style="ellipse;shape=umlControl;whiteSpace=wrap;html=1;" vertex="1" parent="1">
          <mxGeometry x="-117" y="405" width="70" height="80" as="geometry" />
        </mxCell>
        <mxCell id="zBdxMDdA5Jc1Q53KBNL7-15" value="Οθόνη&amp;nbsp;&lt;div&gt;Διαγραφής&lt;/div&gt;&lt;div&gt;&lt;span style=&quot;font-size: 11px; text-wrap-mode: nowrap; background-color: rgb(255, 255, 255);&quot;&gt;Αγγελίας&lt;/span&gt;&lt;/div&gt;" style="shape=umlBoundary;whiteSpace=wrap;html=1;" vertex="1" parent="1">
          <mxGeometry x="-282" y="402" width="100" height="80" as="geometry" />
        </mxCell>
        <mxCell id="zBdxMDdA5Jc1Q53KBNL7-20" value="" style="endArrow=classic;html=1;rounded=0;" edge="1" parent="1" source="zBdxMDdA5Jc1Q53KBNL7-13" target="dpwUTuutwJOYTm1G-602-13">
          <mxGeometry width="50" height="50" relative="1" as="geometry">
            <mxPoint x="-82" y="294" as="sourcePoint" />
            <mxPoint x="596" y="359" as="targetPoint" />
            <Array as="points">
              <mxPoint x="398" y="442" />
              <mxPoint x="402" y="-205" />
            </Array>
          </mxGeometry>
        </mxCell>
        <mxCell id="zBdxMDdA5Jc1Q53KBNL7-30" value="" style="edgeStyle=none;rounded=0;orthogonalLoop=1;jettySize=auto;html=1;" edge="1" parent="1" source="zBdxMDdA5Jc1Q53KBNL7-23" target="zBdxMDdA5Jc1Q53KBNL7-29">
          <mxGeometry relative="1" as="geometry" />
        </mxCell>
        <mxCell id="zBdxMDdA5Jc1Q53KBNL7-23" value="Οθόνη Επεξεργασίας&lt;div&gt;&lt;span style=&quot;font-size: 11px; text-wrap-mode: nowrap; background-color: rgb(255, 255, 255);&quot;&gt;Αγγελίας&lt;/span&gt;&lt;/div&gt;" style="shape=umlBoundary;whiteSpace=wrap;html=1;" vertex="1" parent="1">
          <mxGeometry x="-282" y="559" width="100" height="80" as="geometry" />
        </mxCell>
        <mxCell id="zBdxMDdA5Jc1Q53KBNL7-25" value="" style="edgeStyle=none;rounded=0;orthogonalLoop=1;jettySize=auto;html=1;" edge="1" parent="1" source="zBdxMDdA5Jc1Q53KBNL7-24" target="zBdxMDdA5Jc1Q53KBNL7-11">
          <mxGeometry relative="1" as="geometry" />
        </mxCell>
        <mxCell id="zBdxMDdA5Jc1Q53KBNL7-24" value="φόρτωση&lt;div&gt;Αγγελιών&lt;/div&gt;" style="ellipse;shape=umlControl;whiteSpace=wrap;html=1;" vertex="1" parent="1">
          <mxGeometry x="-69" y="296" width="70" height="80" as="geometry" />
        </mxCell>
        <mxCell id="zBdxMDdA5Jc1Q53KBNL7-26" value="" style="endArrow=classic;html=1;rounded=0;" edge="1" parent="1" source="dpwUTuutwJOYTm1G-602-13" target="zBdxMDdA5Jc1Q53KBNL7-11">
          <mxGeometry width="50" height="50" relative="1" as="geometry">
            <mxPoint x="67" y="357" as="sourcePoint" />
            <mxPoint x="184" y="-174" as="targetPoint" />
            <Array as="points">
              <mxPoint x="224" y="-160" />
              <mxPoint x="229" y="297" />
            </Array>
          </mxGeometry>
        </mxCell>
        <mxCell id="zBdxMDdA5Jc1Q53KBNL7-32" value="" style="edgeStyle=none;rounded=0;orthogonalLoop=1;jettySize=auto;html=1;" edge="1" parent="1" source="zBdxMDdA5Jc1Q53KBNL7-29" target="zBdxMDdA5Jc1Q53KBNL7-31">
          <mxGeometry relative="1" as="geometry" />
        </mxCell>
        <mxCell id="zBdxMDdA5Jc1Q53KBNL7-33" value="Σωστά" style="edgeLabel;html=1;align=center;verticalAlign=middle;resizable=0;points=[];" vertex="1" connectable="0" parent="zBdxMDdA5Jc1Q53KBNL7-32">
          <mxGeometry x="-0.0389" y="-3" relative="1" as="geometry">
            <mxPoint as="offset" />
          </mxGeometry>
        </mxCell>
        <mxCell id="zBdxMDdA5Jc1Q53KBNL7-35" value="" style="edgeStyle=none;rounded=0;orthogonalLoop=1;jettySize=auto;html=1;" edge="1" parent="1" source="zBdxMDdA5Jc1Q53KBNL7-29" target="zBdxMDdA5Jc1Q53KBNL7-34">
          <mxGeometry relative="1" as="geometry" />
        </mxCell>
        <mxCell id="zBdxMDdA5Jc1Q53KBNL7-36" value="Λάθος" style="edgeLabel;html=1;align=center;verticalAlign=middle;resizable=0;points=[];" vertex="1" connectable="0" parent="zBdxMDdA5Jc1Q53KBNL7-35">
          <mxGeometry x="-0.1755" y="-3" relative="1" as="geometry">
            <mxPoint as="offset" />
          </mxGeometry>
        </mxCell>
        <mxCell id="zBdxMDdA5Jc1Q53KBNL7-29" value="Έλεγχος Αλλαγών" style="ellipse;shape=umlControl;whiteSpace=wrap;html=1;" vertex="1" parent="1">
          <mxGeometry x="-71" y="561" width="70" height="80" as="geometry" />
        </mxCell>
        <mxCell id="zBdxMDdA5Jc1Q53KBNL7-31" value="&lt;div&gt;Αποθήκευση&lt;/div&gt;&lt;div&gt;στοιχείων&lt;/div&gt;" style="ellipse;shape=umlControl;whiteSpace=wrap;html=1;" vertex="1" parent="1">
          <mxGeometry x="148" y="561" width="70" height="80" as="geometry" />
        </mxCell>
        <mxCell id="zBdxMDdA5Jc1Q53KBNL7-37" value="" style="edgeStyle=none;rounded=0;orthogonalLoop=1;jettySize=auto;html=1;" edge="1" parent="1" source="zBdxMDdA5Jc1Q53KBNL7-34" target="zBdxMDdA5Jc1Q53KBNL7-23">
          <mxGeometry relative="1" as="geometry" />
        </mxCell>
        <mxCell id="zBdxMDdA5Jc1Q53KBNL7-34" value="Εμφάνιση&lt;div&gt;κανόνων&lt;/div&gt;" style="ellipse;shape=umlControl;whiteSpace=wrap;html=1;" vertex="1" parent="1">
          <mxGeometry x="-71" y="679" width="70" height="80" as="geometry" />
        </mxCell>
        <mxCell id="zBdxMDdA5Jc1Q53KBNL7-38" value="" style="endArrow=classic;html=1;rounded=0;" edge="1" parent="1" source="zBdxMDdA5Jc1Q53KBNL7-31" target="dpwUTuutwJOYTm1G-602-13">
          <mxGeometry width="50" height="50" relative="1" as="geometry">
            <mxPoint x="67" y="377" as="sourcePoint" />
            <mxPoint x="334" y="379" as="targetPoint" />
            <Array as="points">
              <mxPoint x="340" y="230" />
              <mxPoint x="267" y="14" />
            </Array>
          </mxGeometry>
        </mxCell>
      </root>
    </mxGraphModel>
  </diagram>
</mxfile>
